:FULLY-SPECIFIED
:FORCE-ALL-JOINTS-BE-3DOF
:DEGREES
3058
root -1.58731 15.946 -34.1902 1087.69 2.4641 1.70624
lfemur -34.749 4.82795 -2.52745
ltibia 56.9819 0 0
lfoot -9.45967 -2.22264 0
ltoes -43.7154 0 0
rfemur -36.8787 -5.09432 25.1252
rtibia 61.4143 0 0
rfoot -20.0682 -27.9981 0
rtoes -3.40645 0 0
lowerback 12.8795 0.493811 -2.02793
upperback -1.02308 0.475529 1.60874
thorax -8.37357 0.363227 2.77118
lowerneck 4.05942 -8.88123 -12.3564
upperneck -3.60522 -12.211 10.1102
head -0.331757 -6.17191 5.029
lclavicle -4.80396e-15 7.3624e-16 0
lhumerus 14.8086 -42.0683 87.1961
lradius 69.8138 0 0
lwrist -1.15808 0 0
lhand -25.2823 394.331 0
lfingers 7.12502 0 0
lthumb 2.78948 -654.741 0
rclavicle -3.97566e-15 -1.70388e-15 0
rhumerus 21.0957 45.3067 -48.8696
rradius 104.985 0 0
rwrist -42.1689 0 0
rhand -7.00003 -387.917 0
rfingers 7.12502 0 0
rthumb 18.9913 298.391 0
3059
root -1.54877 15.9467 -34.1682 1087.59 2.9519 1.71828
lfemur -34.5636 4.68856 -2.65122
ltibia 56.6507 0 0
lfoot -9.80632 -2.36558 0
ltoes -44.1524 0 0
rfemur -36.6214 -5.033 24.96
rtibia 61.4138 0 0
rfoot -20.0102 -27.6954 0
rtoes -3.61655 0 0
lowerback 12.8299 0.41164 -1.93538
upperback -1.01466 0.377035 1.55831
thorax -8.3283 0.309334 2.68387
lowerneck 3.92246 -8.70378 -12.1656
upperneck -3.51968 -11.9539 9.99686
head -0.331891 -6.04083 4.96528
lclavicle -5.83102e-15 7.65689e-16 0
lhumerus 13.721 -42.2402 87.6599
lradius 70.0669 0 0
lwrist -0.597893 0 0
lhand -25.0324 394.531 0
lfingers 7.12502 0 0
lthumb 2.98916 -654.441 0
rclavicle -5.40028e-15 -4.92237e-16 0
rhumerus 19.4627 45.5003 -50.1366
rradius 105.568 0 0
rwrist -41.7496 0 0
rhand -6.94369 -387.708 0
rfingers 7.12502 0 0
rthumb 18.9285 298.174 0
3060
root -1.5088 15.9498 -34.1449 1087.47 3.47583 1.83022
lfemur -34.3782 4.54918 -2.77499
ltibia 56.3195 0 0
lfoot -10.153 -2.50851 0
ltoes -44.5894 0 0
rfemur -36.364 -4.97169 24.7948
rtibia 61.4133 0 0
rfoot -19.9523 -27.3926 0
rtoes -3.82664 0 0
lowerback 12.7869 0.33833 -1.92418
upperback -1.00768 0.277606 1.50822
thorax -8.2894 0.258805 2.64327
lowerneck 3.7991 -8.5415 -12.0987
upperneck -3.40522 -11.7252 9.95279
head -0.31024 -5.9245 4.93925
lclavicle -6.85807e-15 7.95139e-16 0
lhumerus 12.6334 -42.4121 88.1237
lradius 70.3201 0 0
lwrist -0.0377015 0 0
lhand -24.7826 394.73 0
lfingers 7.12502 0 0
lthumb 3.18884 -654.141 0
rclavicle -6.8249e-15 7.19404e-16 0
rhumerus 17.8297 45.6939 -51.4036
rradius 105.797 0 0
rwrist -41.3302 0 0
rhand -6.88735 -387.5 0
rfingers 7.12502 0 0
rthumb 18.8656 297.958 0
3061
root -1.47241 15.9537 -34.1229 1087.36 4.01931 1.86819
lfemur -34.1928 4.4098 -2.89877
ltibia 55.9883 0 0
lfoot -10.4996 -2.65145 0
ltoes -45.0264 0 0
rfemur -36.1067 -4.91037 24.6296
rtibia 61.4128 0 0
rfoot -19.8943 -27.0899 0
rtoes -4.03674 0 0
lowerback 12.7428 0.274619 -1.88107
upperback -1.01374 0.197986 1.48254
thorax -8.26542 0.217409 2.60675
lowerneck 3.75661 -8.40825 -11.9416
upperneck -3.32943 -11.5401 9.8082
head -0.319514 -5.83039 4.87393
lclavicle -6.5315e-15 1.04125e-15 0
lhumerus 11.5459 -42.5841 88.5875
lradius 70.5733 0 0
lwrist 0.52249 0 0
lhand -24.5327 394.929 0
lfingers 7.12502 0 0
lthumb 3.38852 -653.842 0
rclavicle -8.24953e-15 1.93105e-15 0
rhumerus 16.1967 45.8875 -52.6706
rradius 106.025 0 0
rwrist -40.9109 0 0
rhand -6.83101 -387.291 0
rfingers 7.12502 0 0
rthumb 18.8028 297.742 0
3062
root -1.43551 15.9605 -34.1019 1087.25 4.54277 1.84444
lfemur -34.0074 4.27042 -3.02254
ltibia 55.6571 0 0
lfoot -10.8463 -2.79438 0
ltoes -45.4634 0 0
rfemur -35.8494 -4.84906 24.4644
rtibia 61.4123 0 0
rfoot -19.8364 -26.7871 0
rtoes -4.24683 0 0
lowerback 12.7334 0.20434 -1.74614
upperback -1.0482 0.123445 1.45754
thorax -8.2921 0.175343 2.51829
lowerneck 3.79768 -8.25758 -11.8708
upperneck -3.23993 -11.3435 9.76661
head -0.327637 -5.73359 4.85602
lclavicle -6.20492e-15 1.28737e-15 0
lhumerus 10.4583 -42.756 89.0514
lradius 70.8264 0 0
lwrist 1.08268 0 0
lhand -24.2829 395.128 0
lfingers 7.12502 0 0
lthumb 3.5882 -653.542 0
rclavicle -9.67415e-15 3.14269e-15 0
rhumerus 14.5638 46.0811 -53.9376
rradius 106.254 0 0
rwrist -40.4916 0 0
rhand -6.77467 -387.083 0
rfingers 7.12502 0 0
rthumb 18.74 297.526 0
3063
root -1.40229 15.9709 -34.0791 1087.07 5.07099 1.77772
lfemur -33.8221 4.13104 -3.14631
ltibia 55.3259 0 0
lfoot -11.1929 -2.93731 0
ltoes -45.9004 0 0
rfemur -35.5921 -4.78774 24.2992
rtibia 61.4118 0 0
rfoot -19.7494 -26.6718 0
rtoes -4.45692 0 0
lowerback 12.7341 0.181371 -1.60284
upperback -1.01482 0.114563 1.45227
thorax -8.25521 0.163696 2.43276
lowerneck 3.7087 -8.17289 -11.7651
upperneck -3.12686 -11.2212 9.70201
head -0.302999 -5.67124 4.81651
lclavicle -5.87835e-15 1.53348e-15 0
lhumerus 9.37073 -42.9279 89.5152
lradius 71.0795 0 0
lwrist 1.64287 0 0
lhand -24.033 395.328 0
lfingers 7.12502 0 0
lthumb 3.35118 -653.635 0
rclavicle -1.10988e-14 4.35433e-15 0
rhumerus 12.9308 46.2747 -55.2046
rradius 106.483 0 0
rwrist -40.0723 0 0
rhand -6.71833 -386.874 0
rfingers 7.12502 0 0
rthumb 18.6771 297.309 0
3064
root -1.36591 15.9775 -34.0589 1087.01 5.55894 1.66149
lfemur -33.6367 3.99166 -3.27009
ltibia 54.9948 0 0
lfoot -11.5396 -3.08025 0
ltoes -46.3374 0 0
rfemur -35.3347 -4.72643 24.1339
rtibia 61.4113 0 0
rfoot -19.6623 -26.5564 0
rtoes -4.66702 0 0
lowerback 12.6607 0.1863 -1.37188
upperback -1.05153 0.156465 1.43834
thorax -8.25407 0.173619 2.27841
lowerneck 3.57012 -8.13179 -11.5779
upperneck -2.87377 -11.1561 9.53166
head -0.233765 -5.63632 4.72511
lclavicle -5.55177e-15 1.7796e-15 0
lhumerus 8.28315 -43.0999 89.979
lradius 71.3327 0 0
lwrist 2.20306 0 0
lhand -23.7832 395.527 0
lfingers 7.12502 0 0
lthumb 3.11417 -653.727 0
rclavicle -1.25234e-14 5.56597e-15 0
rhumerus 11.2978 46.4683 -56.4717
rradius 106.712 0 0
rwrist -39.6529 0 0
rhand -6.66199 -386.665 0
rfingers 7.12502 0 0
rthumb 18.6143 297.093 0
